/* XPM */
static char *bitcoin32[] = {
/* columns rows colors chars-per-pixel */
"32 32 231 2 ",
"   c #AA732A",
".  c #B1792C",
"X  c #AD7C32",
"o  c #CC7F1F",
"O  c #B9802E",
"+  c #AF8034",
"@  c #BD8534",
"#  c #BD8A34",
"$  c #BD8A38",
"%  c #CE861F",
"&  c #D5811F",
"*  c #D9861C",
"=  c #D58A1D",
"-  c #DA8B1F",
";  c #D2921E",
":  c #DD901F",
">  c #DB981E",
",  c #E4941E",
"<  c #E29D1F",
"1  c #CD8623",
"2  c #CF8F27",
"3  c #C8862B",
"4  c #CC8C2C",
"5  c #D08523",
"6  c #D38B22",
"7  c #DA8D21",
"8  c #D38D2B",
"9  c #D79322",
"0  c #DD9323",
"q  c #D69924",
"w  c #DB9B24",
"e  c #D5932A",
"r  c #DA952B",
"t  c #D39B2B",
"y  c #DC9B2C",
"u  c #C48B36",
"i  c #CE8E32",
"p  c #C68F39",
"a  c #D18D31",
"s  c #C69234",
"d  c #CB9135",
"f  c #C1933B",
"g  c #C89B3E",
"h  c #D49333",
"j  c #DA9532",
"k  c #D59B35",
"l  c #DB9D33",
"z  c #DB9D3B",
"x  c #E09623",
"c  c #E39B23",
"v  c #E89E22",
"b  c #E0972B",
"n  c #E39C2A",
"m  c #E29D34",
"M  c #DEA223",
"N  c #D7A22D",
"B  c #DCA42B",
"V  c #DFAA2D",
"C  c #CFA43D",
"Z  c #DDA333",
"A  c #DEAD34",
"S  c #DBA43A",
"D  c #DEAA3D",
"F  c #DFB23D",
"G  c #E4A225",
"H  c #EAA323",
"J  c #EEAC24",
"K  c #E3A42A",
"L  c #EAA528",
"P  c #E5AB2D",
"I  c #ECAB2A",
"U  c #F1AE25",
"Y  c #F1AE2B",
"T  c #EEB22C",
"R  c #F3B327",
"E  c #F8B727",
"W  c #F8B827",
"Q  c #F4B42C",
"!  c #F6B92D",
"~  c #FABC2C",
"^  c #E3A434",
"/  c #E9A736",
"(  c #E4AB35",
")  c #EBAD33",
"_  c #E4A33A",
"`  c #E2AF3F",
"'  c #E9AB3C",
"]  c #F1AE31",
"[  c #E5B332",
"{  c #EDB232",
"}  c #EEB830",
"|  c #EBB63C",
" . c #EEBC3B",
".. c #F2B431",
"X. c #F4BC33",
"o. c #FABC31",
"O. c #F5BD3B",
"+. c #FDC12E",
"@. c #F6C033",
"#. c #FDC333",
"$. c #FFC937",
"%. c #F5C23A",
"&. c #FAC63A",
"*. c #F6CA3F",
"=. c #FECA3B",
"-. c #FED13D",
";. c #D2A640",
":. c #DFA642",
">. c #DEAF42",
",. c #DAAB49",
"<. c #DFB147",
"1. c #D8A751",
"2. c #D6A75C",
"3. c #E6A740",
"4. c #E3A945",
"5. c #E8AC42",
"6. c #E0B141",
"7. c #E6BD41",
"8. c #ECBB42",
"9. c #E3B64D",
"0. c #F1BF44",
"q. c #E3AC50",
"w. c #E6BF54",
"e. c #E5B55D",
"r. c #E6BD5C",
"t. c #E8BB5A",
"y. c #D9AE67",
"u. c #DFB760",
"i. c #DCB568",
"p. c #E3BC67",
"a. c #E2BD6D",
"s. c #E5BB70",
"d. c #DCC65E",
"f. c #E4C646",
"g. c #EEC142",
"h. c #E4C34B",
"j. c #EBC44C",
"k. c #E6C94F",
"l. c #F3C345",
"z. c #FBC741",
"x. c #F5CC46",
"c. c #FDCE43",
"v. c #F3C34A",
"b. c #FCC648",
"n. c #F3CA4D",
"m. c #F8CE4F",
"M. c #EAD24F",
"N. c #FAD346",
"B. c #F6D24D",
"V. c #FED14C",
"C. c #EDC352",
"Z. c #E3C955",
"A. c #E3CB5A",
"S. c #F1C453",
"D. c #F4CC56",
"F. c #F9CA51",
"G. c #F0CC5D",
"H. c #EDD153",
"J. c #F5D355",
"K. c #FED454",
"L. c #FAD852",
"P. c #F3D358",
"I. c #FDD55C",
"U. c #F4D95B",
"Y. c #FFD85F",
"T. c #DCC961",
"R. c #E8C462",
"E. c #E1CF66",
"W. c #E7C568",
"Q. c #E8C36E",
"!. c #E1CD6F",
"~. c #EFCD6A",
"^. c #F1CA64",
"/. c #EED364",
"(. c #FBD464",
"). c #F3D860",
"_. c #FED965",
"`. c #FFD56B",
"'. c #FFDB6C",
"]. c #EBC270",
"[. c #E5CF70",
"{. c #E7C27C",
"}. c #E8C57D",
"|. c #F3CF70",
" X c #EFD771",
".X c #E3D37C",
"XX c #EFD47D",
"oX c #F4D375",
"OX c #F7DA74",
"+X c #FFDD74",
"@X c #F2D478",
"#X c #F5DD7F",
"$X c #FDDE7C",
"%X c #FFE17D",
"&X c #ECCF80",
"*X c #E3D887",
"=X c #EED48B",
"-X c #EADD8D",
";X c #F1D785",
":X c #FADC81",
">X c #F5DA89",
",X c #EDD390",
"<X c #EFDA92",
"1X c #EED89D",
"2X c #F3DC94",
"3X c #F7E186",
"4X c #FFE283",
"5X c #FFE38B",
"6X c #EAE193",
"7X c #FDE694",
"8X c #FCE799",
"9X c #FFE99C",
"0X c #F4DFA2",
"qX c #F0DFAB",
"wX c #EFE1AD",
"eX c #F4E1A3",
"rX c #FAE6A1",
"tX c #FFEAA2",
"yX c #F4E3AB",
"uX c #FEEBAC",
"iX c #EEE2B4",
"pX c #EFE7BC",
"aX c #FDEDB3",
"sX c #F3E7BA",
"dX c #F5EBBD",
"fX c #FCEEBA",
"gX c #FEF1BD",
"hX c #F4ECC1",
"jX c #FEF3C5",
"kX c #FFF6CA",
"lX c None",
/* pixels */
"lXlXlXlXlXlXlXlXlXlXlXlX`.#X3X3X:XOX(.D.lXlXlXlXlXlXlXlXlXlXlXlX",
"lXlXlXlXlXlXlXlXlX(.7X-X.XE.A.Z.k.h.h.h.j.n.b.lXlXlXlXlXlXlXlXlX",
"lXlXlXlXlXlXlXlX8X*Xd.M.U.U.P.P.J.j.x.-. .[ [ n.v.lXlXlXlXlXlXlX",
"lXlXlXlXlXlX+X6Xd.M./.U.L.B.N.x.*.%.&.$.0.v.8.( R.>XlXlXlXlXlXlX",
"lXlXlXlXlX4X.Xf./.J.n.N.c.-.=.$.$.#.#.#.o.O.8.| K Q.yXlXlXlXlXlX",
"lXlXlXlX$X!.j.U.n.*.-.$.$.$.#.#.#.#.o.o.o.o.Q Y ) K i.eXlXlXlXlX",
"lXlXlX(.[.7.n.l.$.$.#.#.#.#.o.o.o.X.0...Y Y Y Y I y = u.XXlXlXlX",
"lXlXlX XF v.@.$.#.#.#.b.O.o.o.Q R ..] q Y L L L G c b 7 w.<.lXlX",
"lXlX(.>. . .o.o.o.o.o.] I Y Q Y I ] r r L v v b c x x r 6 l.lXlX",
"lXlXj.( | o.~ o.! Q Q L G n I L H / 2 v c b x x 0 0 7 8 5 w D lX",
"lXn.P } ..Q Q ] Y Y I L I n ' _ / _ 4 r x 0 0 7 0 7 7 7 h 6 ( lX",
"lXl.K ..Y Y I L L L v / 3.n n x r 0 a a 8 0 7 7 7 7 7 - j 2 r lX",
"lX| :.4.L ) L v v _ 3.m b x 7 x 0 7 7 8 8 r 7 7 7 - 7 : r h 6 d ",
"S.` _ m v m c c m m x x 0 7 7 6 7 0 7 0 - o 5 0 7 0 0 , c Z 6 d ",
"|.,.y w c r 6 r m - 7 0 0 0 7 7 5 7 7 0 c 7 6 : x < < v G ( ; h ",
"2X1.0 0 0 4 1 3 8 7 : 7 7 0 0 7 - 0 0 0 w ; x c v H H L L J < z ",
"0X2.* 7 8 1 : - 0 & 7 7 7 0 : w * x , v w l > w ( S V K U ~ J D ",
",Xy.* 7 = 7 7 7 9 = * : 0 , c c v , H < t ( t w M B R W ~ +.R >.",
"p.a.a r - 7 7 0 6 6 % 9 = w > < M H , ; [ N t E ~ ~ +.+.@.X.@.;.",
"lXW.5 j : 0 > , c v w y y e > G > B M E J P ~ +.+.#.#.$.%.8.%.# ",
"lXS.e z w c c H H H H > K ^ X.T J T ! +.~ ! &.$.$.-.c.V.S.S.8.lX",
"lX6.G z v H H H J J J I [ N V [ } +.} &.$. .g.j.m.K._._.~.S.k lX",
"lXlX[ c ) J U U R E E X.A ! +.X.X.-.=.g.N.K.K.(.'.+X%X@X;X5.  lX",
"lXlXS c ) } W ~ ~ +.+.X.X.$.=.c.g.V.K.I._.+X%X%X5X7X7X2X].a lXlX",
"lXlXlXZ H X.@.+.#.#.$.=.c.V.K.I.G.'.+X%X4X5X7X9XtXuX0X1Xz lXlXlX",
"lXlXlXlXr P v.z.-.c.K.K.I._.'.$X X5X5X9XtXuXuXfXgXyXwXq.. lXlXlX",
"lXlXlXlXu r 8.G.I._._.+X$X4X5X7X<XrXuXuXfXgXjXfXhXsXe.u lXlXlXlX",
"lXlXlXlXlX@ ( w.oXoX:X7X9XtXuXuXaXfXjXjXkXkXfXiXwXt.$ lXlXlXlXlX",
"lXlXlXlXlXlXlX| G.XX0XeX0XuXfXgXjXjXjXsXdXhXiX=X9.+ lXlXlXlXlXlX",
"lXlXlXlXlXlXlXlXC 0.^.,XqXsXsXiXhXsXiXpXwX=XR.g lXlXlXlXlXlXlXlX",
"lXlXlXlXlXlXlXlXlXlXs l 4.e.s.{.}.}.Q.r.,.f lXlXlXlXlXlXlXlXlXlX",
"lXlXlXlXlXlXlXlXlXlXlXlXlX  O u p $ X lXlXlXlXlXlXlXlXlXlXlXlXlX"
};
