/* XPM */
static char *bitcoin16[] = {
/* columns rows colors chars-per-pixel */
"16 16 198 2 ",
"   c #A76F27",
".  c #BC8029",
"X  c #BC8831",
"o  c #B7863A",
"O  c #D6891F",
"+  c #D98A1F",
"@  c #DB8E1F",
"#  c #DC931F",
"$  c #E2941F",
"%  c #CF8F2C",
"&  c #D68A21",
"*  c #D68B21",
"=  c #D48922",
"-  c #D58B26",
";  c #D98A20",
":  c #D88B21",
">  c #D98C21",
",  c #DB8E20",
"<  c #DA8E21",
"1  c #DB8E21",
"2  c #D88C22",
"3  c #DA8F22",
"4  c #DC8F20",
"5  c #D88F27",
"6  c #D38D28",
"7  c #CC902B",
"8  c #D79223",
"9  c #D99322",
"0  c #DB9222",
"q  c #DD9120",
"w  c #DD9221",
"e  c #DE9321",
"r  c #DC9322",
"t  c #DE9421",
"y  c #D99226",
"u  c #DC9227",
"i  c #D99625",
"p  c #DC9425",
"a  c #DE9425",
"s  c #DB9827",
"d  c #D7912A",
"f  c #D3902D",
"g  c #DB9028",
"h  c #DB982B",
"j  c #DB9D28",
"k  c #D99D2B",
"l  c #DA9A2E",
"z  c #DF9A2E",
"x  c #DC9E2F",
"c  c #D79332",
"v  c #E09521",
"b  c #E09623",
"n  c #E29B20",
"m  c #E09E21",
"M  c #E49C23",
"N  c #E69F22",
"B  c #E29825",
"V  c #E49B24",
"C  c #E59D24",
"Z  c #E69C25",
"A  c #E59D26",
"S  c #E49E2E",
"D  c #E29D30",
"F  c #E49E31",
"G  c #DEA33D",
"H  c #DFAE3A",
"J  c #E1A123",
"K  c #E4A424",
"L  c #E9A121",
"P  c #E8A626",
"I  c #E8A726",
"U  c #EEA822",
"Y  c #E2A52B",
"T  c #E0A22C",
"R  c #E0A62E",
"E  c #E8A32C",
"W  c #EAA72E",
"Q  c #EBA72E",
"!  c #E4AB2D",
"~  c #E9A82A",
"^  c #EDA829",
"/  c #EFA928",
"(  c #EEAB29",
")  c #ECAE2A",
"_  c #EFAB2C",
"`  c #E8AF2D",
"'  c #EEAF2C",
"]  c #F1AE2A",
"[  c #EFB52A",
"{  c #EFB42B",
"}  c #F6B526",
"|  c #F9B826",
" . c #F1B12D",
".. c #F3B12D",
"X. c #F9BA29",
"o. c #FCBF2B",
"O. c #F9B92E",
"+. c #F9BA2F",
"@. c #F8BC2E",
"#. c #F8BE2E",
"$. c #E5A130",
"%. c #E0A234",
"&. c #E9AC30",
"*. c #EBAF32",
"=. c #E2A53A",
"-. c #E9B034",
";. c #EBB235",
":. c #F0B332",
">. c #F0B735",
",. c #F7B831",
"<. c #F2BC31",
"1. c #FBBD30",
"2. c #F9BD35",
"3. c #FABF34",
"4. c #EFC03F",
"5. c #F7C337",
"6. c #F8C031",
"7. c #FFC530",
"8. c #FEC234",
"9. c #FEC534",
"0. c #FEC634",
"q. c #FEC437",
"w. c #FFC836",
"e. c #F6C53D",
"r. c #F7C63D",
"t. c #F9C338",
"y. c #FBC63C",
"u. c #F6C83C",
"i. c #FFCD39",
"p. c #FFCC3C",
"a. c #C29044",
"s. c #C49A4E",
"d. c #DDB04A",
"f. c #D3A459",
"g. c #D6AB5F",
"h. c #DEB35A",
"j. c #E7B247",
"k. c #E9B641",
"l. c #EABA40",
"z. c #EABE48",
"x. c #EDBD4A",
"c. c #E4BC57",
"v. c #E3B55B",
"b. c #E6BE66",
"n. c #F2C143",
"m. c #F2C742",
"M. c #F9C940",
"N. c #FBCE40",
"B. c #FFCF45",
"V. c #FECF47",
"C. c #F2CE4D",
"Z. c #FBCE4B",
"A. c #F4D04B",
"S. c #E8C555",
"D. c #EFC953",
"F. c #ECC159",
"G. c #F6CD5B",
"H. c #F3D755",
"J. c #FFD452",
"K. c #FFD556",
"L. c #FCD55B",
"P. c #DEC175",
"I. c #F3CD63",
"U. c #E9D062",
"Y. c #EAD562",
"T. c #EED266",
"R. c #FDD762",
"E. c #F6D36E",
"W. c #FBD96C",
"Q. c #E6C272",
"!. c #E4C07B",
"~. c #EED771",
"^. c #EFD673",
"/. c #E9D575",
"(. c #F7D774",
"). c #F8D871",
"_. c #F4D78B",
"`. c #F2D48F",
"'. c #F2DC9D",
"]. c #FFE180",
"[. c #FEE181",
"{. c #FFE486",
"}. c #FCE391",
"|. c #FFE691",
" X c #FFE798",
".X c #FFE9A0",
"XX c #F5E7AD",
"oX c #FAE7AD",
"OX c #FAE9AB",
"+X c #FFEDA9",
"@X c #FAEDBD",
"#X c #F8EEBF",
"$X c #FEF0B9",
"%X c #FFF2BC",
"&X c #FAF0C3",
"*X c #FCF4C8",
"=X c #FFF5C8",
"-X c None",
/* pixels */
"-X-X-X-X-XE.^.^.T.D.n.-X-X-X-X-X",
"-X-X-X(./.Y.H.A.m.u.4.>.F.-X-X-X",
"-X-XI.U.C.N.i.w.w.8.2.:.j.Q.-X-X",
"-X-XS.r.w.q.6.O.,.*.^ / A G d.-X",
"-Xz.>.1.O...~ _ W s A B p y x -X",
"-X;...] ^ W $.S z f p 3 3 2 g 7 ",
"k.=.E A F F p @ 3 5 - & 1 w h % ",
"b.p y 6 g @ 0 & ; w 0 w Z J I h ",
"!.O = & & + t # v n k j Y ) | -.",
"h.c @ t # 0 i J J J !  .o.7.t.H ",
"-X%.C L U I R ` [ #.6.r.V.K.G.X ",
"-XT ' } X.@.<.t.M.Z.L.W.].}.v.-X",
"-X-X*.y.p.V.J.R.).{. X+X$X`.  -X",
"-X-X. x.W.].}..XOX%X*X*X'.o -X-X",
"-X-X-X-Xc._.oX#X&X#XXXP.-X-X-X-X",
"-X-X-X-X-X-Xa.f.g.s.-X-X-X-X-X-X"
};
