/* XPM */
static char *bitcoin64[] = {
/* columns rows colors chars-per-pixel */
"64 64 256 2 ",
"   c #BC7D1D",
".  c #B57819",
"X  c #996F39",
"o  c #BB7C24",
"O  c #A4793B",
"+  c #CF6F1A",
"@  c #C27B1A",
"#  c #C77A19",
"$  c #D57C1C",
"%  c #D1741C",
"&  c #CC7E27",
"*  c #BB851C",
"=  c #B4863B",
"-  c #B58330",
";  c #C4831C",
":  c #CB841B",
">  c #CC8B1C",
",  c #C78A1E",
"<  c #D3841D",
"1  c #DA851D",
"2  c #D48C1C",
"3  c #DB8B1E",
"4  c #D88515",
"5  c #D5931C",
"6  c #DD911D",
"7  c #DA9B1D",
"8  c #C7921E",
"9  c #E18B1C",
"0  c #E1931D",
"q  c #E59C1E",
"w  c #EA9A1F",
"e  c #EBA31F",
"r  c #E6A21E",
"t  c #CB8423",
"y  c #CB8C22",
"u  c #C58825",
"i  c #D78621",
"p  c #D48B23",
"a  c #DA8D21",
"s  c #D18C2C",
"d  c #D98521",
"f  c #CC9324",
"g  c #CB9728",
"h  c #D39223",
"j  c #DD9222",
"k  c #D49B23",
"l  c #DD9B23",
"z  c #D5942D",
"x  c #DB942B",
"c  c #D29C2C",
"v  c #DC9B2B",
"b  c #C68934",
"n  c #D78A33",
"m  c #CA9A33",
"M  c #C89937",
"N  c #D39333",
"B  c #DB9B34",
"V  c #DC9D3A",
"C  c #D79737",
"Z  c #E19622",
"A  c #E49B23",
"S  c #E99E22",
"D  c #E29B2A",
"F  c #E0962D",
"G  c #E29934",
"H  c #E28A24",
"J  c #CDA12E",
"K  c #DDA325",
"L  c #DBA528",
"P  c #C9A63C",
"I  c #DDA434",
"U  c #DDA43C",
"Y  c #D8A938",
"T  c #D9B23D",
"R  c #E4A325",
"E  c #EAA324",
"W  c #E6AA26",
"Q  c #EDAA24",
"!  c #E5A32B",
"~  c #EBA529",
"^  c #E5AB2B",
"/  c #EDAA2A",
"(  c #F1AD24",
")  c #F0AE2B",
"_  c #F1A521",
"`  c #E6B22D",
"'  c #ECB42D",
"]  c #ECB026",
"[  c #F4B226",
"{  c #F4B42C",
"}  c #F8B72B",
"|  c #F6B92D",
" . c #FABC2C",
".. c #F9B726",
"X. c #E3A434",
"o. c #E4AB33",
"O. c #EBAC34",
"+. c #E4A43C",
"@. c #E3AB3C",
"#. c #EBAC39",
"$. c #E9A736",
"%. c #F1AE34",
"&. c #ECB334",
"*. c #E5B23A",
"=. c #EBB23C",
"-. c #ECBA3B",
";. c #E8B834",
":. c #F3B434",
">. c #F5BB32",
",. c #FABC31",
"<. c #F1B53A",
"1. c #F2BB3B",
"2. c #F9BD3C",
"3. c #DEC03E",
"4. c #FDC12E",
"5. c #FFC82F",
"6. c #FEC434",
"7. c #FFC936",
"8. c #F5C43C",
"9. c #FAC43B",
"0. c #FFCB3B",
"q. c #F6C53B",
"w. c #FED13E",
"e. c #AD8545",
"r. c #B78C46",
"t. c #BD9449",
"y. c #BB9754",
"u. c #C89847",
"i. c #D49D42",
"p. c #D89A46",
"a. c #C59B53",
"s. c #E39C40",
"d. c #CCA942",
"f. c #C9A94A",
"g. c #DDAB4C",
"h. c #D6A749",
"j. c #DAB446",
"k. c #CAA658",
"l. c #D6AB52",
"z. c #D5A857",
"x. c #DCB555",
"c. c #CEB255",
"v. c #E3A642",
"b. c #E3AB44",
"n. c #E9AD44",
"m. c #E4AB4D",
"M. c #E8A94B",
"N. c #EDBA43",
"B. c #E4B34C",
"V. c #E3BB4C",
"C. c #EBBC4C",
"Z. c #E6B643",
"A. c #F2BE44",
"S. c #F3BD4A",
"D. c #F0B645",
"F. c #EAB454",
"G. c #E5B958",
"H. c #EDB354",
"J. c #D9BB65",
"K. c #DCBD77",
"L. c #E4BC67",
"P. c #DCC144",
"I. c #EAC649",
"U. c #FECD43",
"Y. c #F4C44C",
"T. c #F5CB4B",
"R. c #FCCE4A",
"E. c #F6C546",
"W. c #FED343",
"Q. c #FFD944",
"!. c #FED24C",
"~. c #FEDC4C",
"^. c #F4D44B",
"/. c #ECC454",
"(. c #ECC95A",
"). c #EAC55B",
"_. c #F3CC53",
"`. c #F7C857",
"'. c #FED454",
"]. c #FDDB54",
"[. c #F5D35B",
"{. c #FED55B",
"}. c #FFDA5B",
"|. c #F6D856",
" X c #FDE256",
".X c #FEE55D",
"XX c #FEE24D",
"oX c #DDCA76",
"OX c #D8C168",
"+X c #E8C766",
"@X c #F4CE62",
"#X c #F4CA60",
"$X c #ECD36A",
"%X c #F2D364",
"&X c #FFD964",
"*X c #FCD26B",
"=X c #FFDB6C",
"-X c #F9D564",
";X c #E8C978",
":X c #FEDC73",
">X c #FEDE7A",
",X c #F6D776",
"<X c #ECD377",
"1X c #FCE262",
"2X c #FDE76A",
"3X c #FFE17C",
"4X c #FFE476",
"5X c #DBBF84",
"6X c #D9C58D",
"7X c #E8CA88",
"8X c #E6D585",
"9X c #F5D884",
"0X c #E3CD95",
"qX c #ECD296",
"wX c #E6D39C",
"eX c #EAD49C",
"rX c #E9D69B",
"tX c #F3DB98",
"yX c #FFE283",
"uX c #FFEC83",
"iX c #FEE38C",
"pX c #FDEB8C",
"aX c #FFE693",
"sX c #FDE69A",
"dX c #FFE99D",
"fX c #F9EC97",
"gX c #FEF49A",
"hX c #EEE391",
"jX c #EDDBA4",
"kX c #EBDDAC",
"lX c #ECDEB1",
"zX c #F2DCA2",
"xX c #EFE0AA",
"cX c #FEEAA4",
"vX c #FEEBAB",
"bX c #F6E5A6",
"nX c #FFF3A3",
"mX c #FEFDAC",
"MX c #FCF9A4",
"NX c #EDE4B9",
"BX c #FEEDB4",
"VX c #F4EABD",
"CX c #FFEFB8",
"ZX c #F3E7B5",
"AX c #FFF3B4",
"SX c #FFFDB4",
"DX c #FFF1BC",
"FX c #FFFFBC",
"GX c #F4EDC3",
"HX c #FEF3C3",
"JX c #F6F3CC",
"KX c #FEF6CA",
"LX c #FFF9CC",
"PX c #F9F3C3",
"IX c #FAF9D4",
"UX c None",
/* pixels */
"UXUXUXUXUXUXUXUXUXUXUXUXUXUXUXUXUXUXUXUXUXUXUXUXUXUXUX`.%X>X>XyX9X3X:X-X`.Y.UXUXUXUXUXUXUXUXUXUXUXUXUXUXUXUXUXUXUXUXUXUXUXUXUXUX",
"UXUXUXUXUXUXUXUXUXUXUXUXUXUXUXUXUXUXUXUXUXUXUX*XiXnXSXSXmXMXgXfXpXuXuXuXuXuX4X:X@XY.UXUXUXUXUXUXUXUXUXUXUXUXUXUXUXUXUXUXUXUXUXUX",
"UXUXUXUXUXUXUXUXUXUXUXUXUXUXUXUXUXUXUXUX*XsXSXFXMXhXoXJ.c.f.f.d.d.P P P j.j.I._. X1X&X_.UXUXUXUXUXUXUXUXUXUXUXUXUXUXUXUXUXUXUXUX",
"UXUXUXUXUXUXUXUXUXUXUXUXUXUXUXUXUXUX,XmXFXmX8XJ.f.d.P.I.^.|.|. XXX|.|.^.8.3.Y J J Y 8.Q.}.{.D.UXUXUXUXUXUXUXUXUXUXUXUXUXUXUXUXUX",
"UXUXUXUXUXUXUXUXUXUXUXUXUXUXUXUX$XmXFXbXOXf.T I. X2X2X1X.X+X/.[.|.|.).T.^.~.Q.Q.q.*.J g ` w.}.#XUXUXUXUXUXUXUXUXUXUXUXUXUXUXUXUX",
"UXUXUXUXUXUXUXUXUXUXUXUXUXUXY.dXSXMXOXP P.1X.X X X<X$X[.|.).~.|.V.^.V.V.V.q.w.W.8.w.^.| K g ;.}.:X#XUXUXUXUXUXUXUXUXUXUXUXUXUXUX",
"UXUXUXUXUXUXUXUXUXUXUXUXUX,XSXSXoXP P..X$X+X$X].XX%X/.Q.~.I.(./.E.w.-.;.q.0.7.7.C.G.N.U./.N.k m @XpX9XUXUXUXUXUXUXUXUXUXUXUXUXUX",
"UXUXUXUXUXUXUXUXUXUXUXUXiXFXfXf.P $X.X1X$XXX+X^.XX^.^.w.w.w.w.w.w.q.0.0.6.0.7.7.C.>.7.L.;.S.R./ f J.nXvXB.UXUXUXUXUXUXUXUXUXUXUX",
"UXUXUXUXUXUXUXUXUXUXUXsXSX<XP P.$X$X|.~.).x.I.Q.W.W.W.U.w.w.0.0.0.7.7.7.7.6.7.6.,.6.6.F.2.9.B.,.:.k k.AXHXL.UXUXUXUXUXUXUXUXUXUX",
"UXUXUXUXUXUXUXUXUXUXgXMXoXm ^. X<X$X(.^.w.T.Q.w.w.w.w.0.0.7.7.7.7.7.6.6.6.6.,.6.6.,.,.>.D.b.O.Z.o. .A a.PXIXL.UXUXUXUXUXUXUXUXUX",
"UXUXUXUXUXUXUXUXUXaXMXOXJ 1XXXw.^.G.Z.U.w.w.w.0.0.7.7.7.7.6.7.6.6.7.6.,.4.,.,.,.,.>.>. .} } >.! { <.=.q u.VXIXG.UXUXUXUXUXUXUXUX",
"UXUXUXUXUXUXUXUXiXMXOXJ XX%X[.[.T.0.w.w.w.7.7.7.7.7.7.6.6.6.6.6.,.,.6.,. .,. .>. .} :.{ { { { ~ X.U O.#.5 u.BXDXg.UXUXUXUXUXUXUX",
"UXUXUXUXUXUXUX,XgX+Xg Q.$XT.I.V.0.0.0.7.7.7.7.7.6.7.6.,.4.4.,.,.,.,.>. .S.`.8.{ { { %.{ ) ) ) ) / / X.s D 3 u.cXcXUXUXUXUXUXUXUX",
"UXUXUXUXUXUX`.gX$Xm ^.[.E.Z.6.7.7.7.6.7.6.7.,.4.,.,.6.,.,.,.,.,.>.>.} 2.`.2.%.W { ) ) ) ) ) / / ~ ~ v h s v 2 f.pX9XUXUXUXUXUXUX",
"UXUXUXUXUXUXfX4XM V.Y.V.-.7.7.7.7.6.6.6.2.4.2.`.Y.6.,.>.>.>.>.} } :.{ :.<._ D g { ) / / ~ ~ ~ ~ ~ ~ ~ x j v S : x.4XG.UXUXUXUXUX",
"UXUXUXUXUX:XuXd.L I.5.Y.-.7.6.6.6.,.6.6.,.,.Y.R.2.:.>.} :.} { { { ) ) ) %.{ u v / ~ ~ ~ E ~ ~ S A S A A A A D D o ^.=XUXUXUXUXUX",
"UXUXUXUXS.uX(.f 7.Z.V.N.4.4.6.,.4.,.,.,.>.>.>.} } ! &.{ { { ) ) ) ) / %.%.t u / ~ ! ~ ~ ~ A S ! D D A A Z Z D V y f Q.).UXUXUXUX",
"UXUXUXUX:X1Xg -.E.1.&.4.,.6.,.,.,.,.}  .>.} / ! { ! ^ ) ) ) ) ) / / ~ =.#.. S ~ ~ A A A D A A Z A Z Z Z j x v a x   / !.M UXUXUX",
"UXUXUXS.4XZ.g 2.*.b.,.,.>.>.>.>.>.} } :.{ { { D l ~ v ) / / ~ ~ ~ ~ S D.z @ ~ D A A A A Z Z Z Z x H j j j j a N i < ; 5.G.UXUXUX",
"UXUXUX*X].g O.-.<.=. .>.>.| } } { { { %.{ ) ) ) W W a / ~ ~ E E ~ S ~ D.o h S D A D Z Z F Z Z x j j j j x a a t d v   R R.UXUXUX",
"UXUXUX1X;.f 4.O.@.%.| { { { { { ) ) ) ) / / / / ~ ' p Z $.$.$.$.A S X.n.@ D D Z Z Z Z j j j a a j a j a a a a a C s $ :  .g.UXUX",
"UXUX`. Xc W ,.| ) { { { { %.) ) ) / / / ~ ~ ~ ~ E ) A v.H.M.v.M.M.v.H.F t i.C G x Z j j j j j a j a a a a a a a s C B   e C.UXUX",
"UXUX{.q., :.{ { ) { ) ) ) / ) ~ / ~ ~ ~ ~ ~ ~ A n.F.~ F ~ 0 6 6 Z o.^ i o u   u n a j a a a a a d a a p a a a a N i.V @ : <.M UX",
"UXUX}.` h D.:.%.) ) ) ) / ~ / ~ ~ ~ ~ A S A ! H.H.D Z Z Z Z Z j d 1 l a n s.V N z x j d a a a a a a a a d a a a 3 B z 3 @ ~ h.UX",
"UXN.].k v M.n.v.Q ~ ~ ~ ~ ~ ~ ! E ~ A A v.H.m.v.S Z Z Z Z j Z Z Z a a a a v C n n a v.v a p a a a a a a a a a a a h.i.B @ 6 g.UX",
"UX`.!.y +.L.m.I ~ ~ $./ S ~ A A A Z M.F.M.x x 9 x Z j l j a a ! j j j a d $ i g x $ a x k d a a a a a 3 a 6 j j 6 z N c : 4 v.UX",
"UX#X!.u ! g.z.D ~ E H.B A A A A Z v.M.j E W ` ! j j d a x 6 1 < l j a L l a $ & x x # # y a a a a a j j j j 6 Z 0 Z D U 5 # +.= ",
"UX=X(.u %.O.A A A A A < Z Z F Z D M.j a j a 3 a j j a d d a l + a a a a a j ^ D + d p # t a j 3 6 j j j 0 Z Z Z Z v I b.l @ G b ",
"B.3X+X; v.g.z A Z Z ! D d A Z 0 +.G 1 j a a 6 l l ^ ! $ a p j d + p j a a a p R ` $ 3 n z > Z j j Z 0 Z Z Z q q q ! I X.o.# x u.",
"G.aXL.: A v x Z Z Z X.b i n F 3 v.D $ p a j x j p i ` a j a p j % i j a j a a i W W 6 < # h 6 0 Z Z Z S q q R S E ~ T I ! : Z u.",
"+XnXK.: ~ B x Z l Z C . ,   b p.p.d d j Z a a p 3 < l a a a p l 1 j a j j j j d R x l A d D 7 A Z S R r R E E E e _ E Q Q > D h.",
";XCXK.# V s s 0 j F b : Z p   . : a j j a a a a i i R j a j a j $ j j 6 j Z j 6 W ; . l / H A R r q e e e e _ ( Q Q ( ( [ p A l.",
";XHX5X# j p a j j x o 3 a j a p x d $ j a j d j a i R j a j A 6 $ 3 l 0 Z Z Z 0 ] y D O.5 K q ~ #.O.%.:.%.#.o.I R ( [ [ [ 5 ) l.",
"L.KX6X@ Z j a a d s u 3 a a d 3 +.h $ 3 j a j a j j l j 1 j R j 1 1 A 0 A 0 q R ] h U N.: 5 K g *.b.M M m g L Q [ [ | .. .l :.l.",
"L.HXwX@ a a a a a s u a a 3 a 3 x j 3 $ < a j j 3 j j j j 3 R 1 R 1 9 e R R R _ K . ! R 5 =.u l 5 8 c W ( ....} |  . . . .K 9.f.",
"UXBXjX@ 3 1 a a a : < j d a a j 2 : x 3 1 1 3 d Z Z S 0 R Z R 0 R ] 9 9 S S S _ . b.S.L c U 8 { [ R K / ..|  . . . . .4. .K U.u.",
"UXzXcXo x z.C d a a a a a 3 j 3 j < . h 1 @ 3 A 3 6 A 0 r Q E 0 R Q ] S w _ E * f `.) c m g [ ..[  . . . . .,.4.4. .4.6.>.^ ~.= ",
"UX7XcXb s i.n a a a a j a j j j j Z j 7 2   c A ; u K j : k W q 6 R Q [ q 8 * 5 2.=.8 f J W  . . . .4. .4.4.4.4.6.8.*.1.>.' !.UX",
"UXJ.gXu.$ x C a 6 j j 6 6 l 0 l Z Z Z S 5 Z b.f l u I * > ; K A * * k L * 7 ] .. .k 7 | )  . . .4.4.4.4.6.6.6.7.7.9.I A.-.>./.UX",
"UXi.uXj.# V p.x 6 j j Z Z Z Z 0 Z q q R R l 2 O.v A n., [ ( | v q ..,.J W  .| ....` |  .4.4.,.5.4.6.7.7.7.7.0.0.0.E.N.R.*.7.l.UX",
"UXUX:X_.@ B s.z 6 l Z Z q Z S A r S r E E r > h W :.V 5 [ ( | ^ 7 ..| ^ {  . .| 4.] >.4.4.6.6.6.7.7.0.0.0.U.U.!.R.g.B.'.o.0.r.UX",
"UXUXG.].u 3 U p.S 0 q S q E e E E E E _ Q ( k q 7 ( k 1.`.>.4.` K  .| K >.4.4.4.5.| ' 0.6.7.7.0.0.0.U.R.R.!.'.'.'./.#X(.W S.UXUX",
"UXUXi.].K < @.z.v S S E E R E e Q Q Q Q ( ) g ( 2.o.5 j.Y ` ' -.K 4.4.{ L q.6.6.6.7.` T Y.T.Y././.R.'.'.'.{.{.&X).#X>XV.Q l.UXUX",
"UXUXUX_. .: ! V q e E e Q _ Q Q ( ( ( [ [ ` K ..T.m c 7 R 8 ^ ;.L 5.6.5.4.` q.7.7.w.w.-.T j.V.I._.'.{.{.&X&X=X=X+XL.<Xv %.= UXUX",
"UXUXUXl.0.5 5 e $.^ Q ( Q ( [ [ [ [ [ [ [ { ..6.j.k ` 4.4.7.7.-.` 7.7.6.0.9.` T.R.R.!.!.'.'.}.}.&X&X=X:X:X>X>X;X<XiXL.0 m.UXUXUX",
"UXUXUXUXY.( > ) F.b.( ( ] [ [ [ [ |  .|  . . .9.m | 5.4.6.4.7.8.o.0.7.w.U.R.E.j.!.'.{.{.}.&X&X=X=X:X>X3XyXyXiX+X9XfXC ~ r.UXUXUX",
"UXUXUXUXh. .5 q *.o.{ [ [ [ ..|  . . . . .4.4.>.^ 7.6.6.7.7.0.U.*.W.R.!.!.'.'.{.{.{.&X=X:X:X:X>XyXyXyXiXiXaX9X;XsXK.4 v.UXUXUXUX",
"UXUXUXUXUXC.r > [ >.@.[  . . . . . .4.,.7.4.7.4.&.7.0.0.U.U.R.'.*.'.'.'.{.{.&X&X=X:X:X>X3XyXyXiXiXaXaXdXsXtXtXzXzXp G e.UXUXUXUX",
"UXUXUXUXUXu.<.2 7 | :.&. .4.4.4.4.6.6.6.7.6.7.7.9.U.U.R.!.!.'.}.V.{.&X&X&X=X:X>X>X>XyXiXiXaXaXaXdXdXcXvXbX7XqXCXz.4 z.UXUXUXUXUX",
"UXUXUXUXUXUXl.S : ] ,.;.9.6.4.6.6.7.7.7.0.U.U.R.!.!.!.'.'.{.{.=X).%X:X:X>X>XyXyXiXiXaXaXsXdXcXcXvXvXBXvXzXzXHXK.4 v.UXUXUXUXUXUX",
"UXUXUXUXUXUXUXm.3 : | 1.C.E.7.7.7.0.0.U.R.R.!.'.'.{.{.{.&X=X&X4X$X;XyXyXiXiXaXaXaXdXdXcXnXvXBXBXBXCXBXbX0XVXwXi X.e.UXUXUXUXUXUX",
"UXUXUXUXUXUXUX= b.1 8 q.A.C.Y.U.R.R.!.'.'.'.{.{.&X&X&X:X:X>X>XyX9X;XpXaXaXaXsXcXcXvXvXBXBXBXCXCXHXHXzX5XJXlXs ! a.UXUXUXUXUXUXUX",
"UXUXUXUXUXUXUXUXr.v.4 f T.R.L.(.'.'.{.{.{.&X&X=X:X:X>X>XyXyXiXiXaX8XsXcXcXcXvXvXBXBXBXCXDXDXHXHXZXKXZXGXNXN A k.UXUXUXUXUXUXUXUX",
"UXUXUXUXUXUXUXUXUXt.+.< g _.`.).@X-X&X=X:X:X>X>XyXyXiXiXaXaXsXdXdX6XbXvXvXBXBXCXCXDXDXHXHXKXLXZXqXVXIXlXN ! z.UXUXUXUXUXUXUXUXUX",
"UXUXUXUXUXUXUXUXUXUXu.v.Z c (.=Xx.@X>X>X3XyXiXiXiXaXaXsXdXcXcXvXvXjXAXBXBXDXDXHXHXHXKXKXLXDXjXwXJXIXwXz O.J.UXUXUXUXUXUXUXUXUXUX",
"UXUXUXUXUXUXUXUXUXUXUXr.C.( v OX>X>X<XG.9XiXaXsXdXcXnXvXvXBXBXBXCXDXDXDXHXHXKXKXKXLXKXHXPXbX0XGXJXK.z N.k.UXUXUXUXUXUXUXUXUXUXUX",
"UXUXUXUXUXUXUXUXUXUXUXUXO `.6./ x.9X9X;X7XtXcXsXbXvXBXCXCXCXDXDXHXHXKXKXKXKXKXLXLXVXVXrXjXNXIXlXl.! /.y.UXUXUXUXUXUXUXUXUXUXUXUX",
"UXUXUXUXUXUXUXUXUXUXUXUXUXUXz.!.5.*.oXbXbXcXqX7XqXtXBXbXCXHXHXLXLXKXKXLXHXVXGXwXlXlXVXPXIXNXK.I -.L.O UXUXUXUXUXUXUXUXUXUXUXUXUX",
"UXUXUXUXUXUXUXUXUXUXUXUXUXUXUXe.(.Q. .Z.;XxXNXBXjXrXqXlXqXZXwX0XwXHXjX7XeX0XVXlXNXIXJXNXoXU ;.).a.UXUXUXUXUXUXUXUXUXUXUXUXUXUXUX",
"UXUXUXUXUXUXUXUXUXUXUXUXUXUXUXUXUXt./.0.{ o.J.rXVXLXKXPXVXkXlXlXlXGXGXlXGXGXJXIXNX0Xx.I =.(.k.X UXUXUXUXUXUXUXUXUXUXUXUXUXUXUXUX",
"UXUXUXUXUXUXUXUXUXUXUXUXUXUXUXUXUXUXUXt.F.A.( q B z.K.eXlXVXJXJXJXJXGXNXkX0XK.h.U o.Y.).k.X UXUXUXUXUXUXUXUXUXUXUXUXUXUXUXUXUXUX",
"UXUXUXUXUXUXUXUXUXUXUXUXUXUXUXUXUXUXUXUXUXO u.g.$.A 9 3 < s s N N N N z x ! o.N.G.c.e.UXUXUXUXUXUXUXUXUXUXUXUXUXUXUXUXUXUXUXUXUX",
"UXUXUXUXUXUXUXUXUXUXUXUXUXUXUXUXUXUXUXUXUXUXUXUXUX= u.u.p.V V V U U v.g.l.k.y.O UXUXUXUXUXUXUXUXUXUXUXUXUXUXUXUXUXUXUXUXUXUXUXUX",
"UXUXUXUXUXUXUXUXUXUXUXUXUXUXUXUXUXUXUXUXUXUXUXUXUXUXUXUXUXO e.e.y.e.e.X UXUXUXUXUXUXUXUXUXUXUXUXUXUXUXUXUXUXUXUXUXUXUXUXUXUXUXUX"
};
